<svg xmlns="http://www.w3.org/2000/svg" xmlns:xlink="http://www.w3.org/1999/xlink" width="150" zoomAndPan="magnify" viewBox="0 0 112.5 112.499997" height="150" preserveAspectRatio="xMidYMid meet" version="1.0"><defs><g/><clipPath id="c2b52deb4f"><path d="M 4.914062 3.894531 L 108.453125 3.894531 L 108.453125 108.605469 L 4.914062 108.605469 Z M 4.914062 3.894531 " clip-rule="nonzero"/></clipPath><clipPath id="6fec47d931"><path d="M 10.164062 3.894531 L 103.203125 3.894531 C 104.59375 3.894531 105.929688 4.449219 106.914062 5.433594 C 107.898438 6.417969 108.453125 7.753906 108.453125 9.144531 L 108.453125 103.355469 C 108.453125 104.746094 107.898438 106.082031 106.914062 107.066406 C 105.929688 108.050781 104.59375 108.605469 103.203125 108.605469 L 10.164062 108.605469 C 8.769531 108.605469 7.433594 108.050781 6.449219 107.066406 C 5.464844 106.082031 4.914062 104.746094 4.914062 103.355469 L 4.914062 9.144531 C 4.914062 7.753906 5.464844 6.417969 6.449219 5.433594 C 7.433594 4.449219 8.769531 3.894531 10.164062 3.894531 " clip-rule="nonzero"/></clipPath></defs><g clip-path="url(#c2b52deb4f)"><g clip-path="url(#6fec47d931)"><path fill="#004e98" d="M 4.914062 3.894531 L 108.453125 3.894531 L 108.453125 108.605469 L 4.914062 108.605469 Z M 4.914062 3.894531 " fill-opacity="1" fill-rule="nonzero"/></g></g><g fill="#ffffff" fill-opacity="1"><g transform="translate(42.496904, 67.541609)"><g><path d="M 22.609375 -26.40625 L 29.515625 -26.40625 C 29.785156 -26.40625 30.019531 -26.304688 30.21875 -26.109375 C 30.425781 -25.910156 30.53125 -25.671875 30.53125 -25.390625 L 30.53125 -1.015625 C 30.53125 -0.742188 30.425781 -0.503906 30.21875 -0.296875 C 30.019531 -0.0976562 29.785156 0 29.515625 0 L 22.671875 0 C 22.398438 0 22.160156 -0.0976562 21.953125 -0.296875 C 21.753906 -0.503906 21.65625 -0.742188 21.65625 -1.015625 L 21.65625 -12.71875 L 18.90625 -7.28125 C 18.75 -6.976562 18.519531 -6.742188 18.21875 -6.578125 C 17.914062 -6.421875 17.613281 -6.34375 17.3125 -6.34375 L 14.75 -6.34375 C 14.320312 -6.34375 13.96875 -6.453125 13.6875 -6.671875 C 13.414062 -6.898438 13.242188 -7.101562 13.171875 -7.28125 L 10.421875 -12.71875 L 10.421875 -1.015625 C 10.421875 -0.742188 10.316406 -0.503906 10.109375 -0.296875 C 9.910156 -0.0976562 9.671875 0 9.390625 0 L 2.5625 0 C 2.289062 0 2.050781 -0.0976562 1.84375 -0.296875 C 1.644531 -0.503906 1.546875 -0.742188 1.546875 -1.015625 L 1.546875 -25.390625 C 1.546875 -25.671875 1.644531 -25.910156 1.84375 -26.109375 C 2.050781 -26.304688 2.289062 -26.40625 2.5625 -26.40625 L 9.46875 -26.40625 C 10.175781 -26.40625 10.71875 -26.066406 11.09375 -25.390625 L 16.03125 -16.34375 L 20.984375 -25.390625 C 21.359375 -26.066406 21.898438 -26.40625 22.609375 -26.40625 Z M 22.609375 -26.40625 "/></g></g></g><g fill="#ffffff" fill-opacity="1"><g transform="translate(72.601363, 67.541609)"><g><path d="M 31.015625 -1.171875 C 31.066406 -1.066406 31.09375 -0.925781 31.09375 -0.75 C 31.09375 -0.570312 31.007812 -0.398438 30.84375 -0.234375 C 30.6875 -0.078125 30.492188 0 30.265625 0 L 21.703125 0 C 20.941406 0 20.410156 -0.3125 20.109375 -0.9375 L 16.796875 -8.421875 L 13.625 -8.421875 L 13.625 -1.015625 C 13.625 -0.742188 13.519531 -0.503906 13.3125 -0.296875 C 13.113281 -0.0976562 12.878906 0 12.609375 0 L 4.453125 0 C 4.171875 0 3.929688 -0.0976562 3.734375 -0.296875 C 3.535156 -0.503906 3.4375 -0.742188 3.4375 -1.015625 L 3.4375 -25.390625 C 3.4375 -25.671875 3.535156 -25.910156 3.734375 -26.109375 C 3.929688 -26.304688 4.171875 -26.40625 4.453125 -26.40625 L 19.125 -26.40625 C 22.570312 -26.40625 25.300781 -25.585938 27.3125 -23.953125 C 29.332031 -22.328125 30.34375 -20.101562 30.34375 -17.28125 C 30.34375 -13.863281 29.019531 -11.382812 26.375 -9.84375 Z M 13.625 -19.390625 L 13.625 -15.390625 L 18.34375 -15.390625 C 18.894531 -15.390625 19.320312 -15.570312 19.625 -15.9375 C 19.925781 -16.300781 20.078125 -16.757812 20.078125 -17.3125 C 20.078125 -17.875 19.929688 -18.359375 19.640625 -18.765625 C 19.347656 -19.179688 18.914062 -19.390625 18.34375 -19.390625 Z M 13.625 -19.390625 "/></g></g></g><g fill="#23b0e5" fill-opacity="1"><g transform="translate(0.0000015, 75.87354)"><g><path d="M 41.359375 -22.359375 L 41.359375 -19.828125 C 41.359375 -18.910156 40.773438 -18.066406 39.609375 -17.296875 L 14.28125 -1.03125 C 14.082031 -0.90625 13.832031 -0.84375 13.53125 -0.84375 C 13.226562 -0.84375 12.957031 -0.960938 12.71875 -1.203125 C 12.476562 -1.441406 12.359375 -1.742188 12.359375 -2.109375 L 12.359375 -11.875 C 12.359375 -12.59375 12.519531 -13.09375 12.84375 -13.375 C 13.164062 -13.65625 13.363281 -13.816406 13.4375 -13.859375 C 13.957031 -14.265625 14.238281 -14.46875 14.28125 -14.46875 L 24.828125 -21.09375 L 14.28125 -27.734375 C 14.125 -27.734375 13.832031 -27.921875 13.40625 -28.296875 C 12.988281 -28.679688 12.738281 -28.9375 12.65625 -29.0625 C 12.457031 -29.582031 12.359375 -30.003906 12.359375 -30.328125 L 12.359375 -40.09375 C 12.359375 -40.445312 12.476562 -40.742188 12.71875 -40.984375 C 12.957031 -41.234375 13.226562 -41.359375 13.53125 -41.359375 C 13.832031 -41.359375 14.082031 -41.296875 14.28125 -41.171875 L 39.609375 -24.890625 C 40.773438 -24.128906 41.359375 -23.285156 41.359375 -22.359375 Z M 41.359375 -22.359375 "/></g></g></g></svg>